<!-- icon666.com - MILLIONS vector ICONS FREE -->
<svg id="Layer_1" enable-background="new 0 0 24 24" viewBox="0 0 24 24" xmlns="http://www.w3.org/2000/svg">
    <g id="Closed_eye">
        <path d="m4.8400002 16.3400002 3.3000001-3.3000002c-.0926494-.3389101-.1397304-.688654-.1400003-1.04-.0006075-2.2085314 1.7892685-3.9993925 3.9977999-4h.0022001c.351346.0002699.7010899.0473509 1.04.1400003l2.54-2.5400004c-1.1517716-.3972683-2.3616401-.6000395-3.58-.5999999-4.3726826-.0621762-8.328783 2.5845108-9.9399996 6.6499996-.0800027.2264757-.0800027.4735241 0 .6999998.578368 1.5415793 1.5342047 2.9134455 2.7799998 3.9900008z"></path>
        <path d="m19.1599998 7.6599998c-.2461032-.2235703-.506668-.4306855-.7800006-.6199998l3.3299999-3.33c.3937149-.3905296.3962974-1.0262854.0057678-1.42s-1.0262852-.3962969-1.4200001-.0057671c-.0019302.0019145-.0038528.0038368-.0057678.0057671l-3.7099991 3.71-2.5599995 2.5600004-5.46 5.46-2.9400005 2.9399986-3.3299999 3.3300019c-.3899779.3930073-.3899779 1.0269928 0 1.4200001.3943579.3866863 1.0256422.3866863 1.4200001 0l3.71-3.710001c.3236165.1564465.6577625.2901058 1 .3999996 1.1517715.3972683 2.36164.6000405 3.5799999.6000004 4.3726826.0621758 8.328783-2.5845108 9.9399986-6.6499996.0800018-.2264757.0800018-.4735241 0-.6999998-.5783672-1.5415793-1.5342045-2.9134455-2.7799988-3.9900008zm-7.1599998 8.3400002c-.351346-.0002699-.7010899-.0473509-1.04-.1400003l4.9000006-4.9000006c.0926495.3389101.1397305.6886549.1399994 1.0400009.0006084 2.2085314-1.7892685 3.9993925-3.9977999 4-.0007333 0-.0014667 0-.0022001 0z"></path>
    </g>
</svg>