<!-- icon666.com - MILLIONS vector ICONS FREE -->
<svg version="1.1" id="Capa_1" xmlns="http://www.w3.org/2000/svg" x="0px"
     y="0px" viewBox="0 0 90.89 90.891" style="enable-background:new 0 0 90.89 90.891;" xml:space="preserve"><g><path d="M65.835,0h-40.78c-1.527,0-2.765,1.237-2.765,2.765v85.361c0,1.526,1.238,2.765,2.765,2.765h40.78 c1.527,0,2.765-1.236,2.765-2.765V2.765C68.6,1.238,67.363,0,65.835,0z M40.347,4.32h10.195c0.382,0,0.691,0.31,0.691,0.691 c0,0.381-0.31,0.691-0.691,0.691H40.347c-0.382,0-0.691-0.31-0.691-0.691C39.656,4.63,39.966,4.32,40.347,4.32z M45.445,87.378 c-1.273,0-2.305-1.032-2.305-2.306c0-1.271,1.032-2.305,2.305-2.305s2.304,1.033,2.304,2.305 C47.75,86.346,46.718,87.378,45.445,87.378z M64.453,79.486H26.438V11.405h38.015V79.486z"></path></g></svg>